<svg width="23" height="26" viewBox="0 0 23 26" fill="none" xmlns="http://www.w3.org/2000/svg">
<g clip-path="url(#clip0_1_332)">
<path d="M11.5 2.5C9.22552 2.5 7.00211 3.17446 5.11095 4.4381C3.21978 5.70174 1.7458 7.49779 0.87539 9.59914C0.00498279 11.7005 -0.222756 14.0128 0.220974 16.2435C0.664704 18.4743 1.75997 20.5234 3.36828 22.1317C4.97658 23.74 7.02568 24.8353 9.25647 25.279C11.4872 25.7228 13.7995 25.495 15.9009 24.6246C18.0022 23.7542 19.7983 22.2802 21.0619 20.3891C22.3255 18.4979 23 16.2745 23 14C22.9967 10.951 21.784 8.02787 19.6281 5.87191C17.4721 3.71596 14.549 2.5033 11.5 2.5ZM19.7867 9.20833H16.6999C16.0089 7.60694 15.0991 6.10917 13.9965 4.75783C16.4368 5.42189 18.5172 7.02091 19.7867 9.20833ZM15.8125 14C15.8046 14.9757 15.6509 15.9448 15.3563 16.875H7.64367C7.34913 15.9448 7.19537 14.9757 7.1875 14C7.19537 13.0243 7.34913 12.0552 7.64367 11.125H15.3563C15.6509 12.0552 15.8046 13.0243 15.8125 14ZM8.41225 18.7917H14.5878C13.7744 20.3976 12.7345 21.8783 11.5 23.1885C10.2651 21.8787 9.22515 20.3979 8.41225 18.7917ZM8.41225 9.20833C9.22565 7.60243 10.2655 6.12169 11.5 4.8115C12.7349 6.12132 13.7749 7.60213 14.5878 9.20833H8.41225ZM9.00834 4.75783C7.90401 6.10888 6.99256 7.60667 6.30009 9.20833H3.2133C4.48391 7.01991 6.56618 5.42076 9.00834 4.75783ZM2.35846 11.125H5.65417C5.40573 12.0633 5.27693 13.0293 5.27084 14C5.27693 14.9707 5.40573 15.9367 5.65417 16.875H2.35846C1.76941 15.0036 1.76941 12.9964 2.35846 11.125ZM3.2133 18.7917H6.30009C6.99256 20.3933 7.90401 21.8911 9.00834 23.2422C6.56618 22.5792 4.48391 20.9801 3.2133 18.7917ZM13.9965 23.2422C15.0991 21.8908 16.0089 20.3931 16.6999 18.7917H19.7867C18.5172 20.9791 16.4368 22.5781 13.9965 23.2422ZM20.6415 16.875H17.3458C17.5943 15.9367 17.7231 14.9707 17.7292 14C17.7231 13.0293 17.5943 12.0633 17.3458 11.125H20.6396C21.2287 12.9964 21.2287 15.0036 20.6396 16.875H20.6415Z" fill="#0A59DA"/>
</g>
<defs>
<clipPath id="clip0_1_332">
<rect width="23" height="25" fill="white" transform="translate(0 0.5)"/>
</clipPath>
</defs>
</svg>
