<svg width="17" height="16" viewBox="0 0 17 16" fill="none" xmlns="http://www.w3.org/2000/svg">
<path d="M0.913223 9.7494C0.913223 5.41208 4.42931 1.89602 8.7666 1.89602H10.3967V0.858617C10.3967 0.473736 10.8526 0.270731 11.1386 0.528207L14.1022 3.19543C14.2984 3.37203 14.2984 3.67968 14.1022 3.85628L11.1386 6.52351C10.8526 6.78099 10.3967 6.57795 10.3967 6.1931V5.15596H8.88061C5.76399 5.15596 2.95549 7.0368 1.76881 9.91865C1.58341 10.3689 0.913223 10.2363 0.913223 9.7494ZM16.0868 6.25059C16.0868 10.5879 12.5707 14.104 8.2334 14.104H6.60331V15.1413C6.60331 15.5262 6.14745 15.7292 5.8614 15.4718L2.89782 12.8045C2.7016 12.6279 2.7016 12.3203 2.89782 12.1437L5.8614 9.47645C6.14748 9.21898 6.60331 9.42201 6.60331 9.80686V10.844H8.11939C11.236 10.844 14.0445 8.96316 15.2312 6.08131C15.4166 5.63109 16.0868 5.76365 16.0868 6.25059Z" fill="#0A59DA"/>
</svg>
